<svg width="4223" height="1024" viewBox="0 0 4223 1024" fill="none" xmlns="http://www.w3.org/2000/svg">
<rect y="1058.43" width="934.863" height="585.445" transform="rotate(-30 0 1058.43)" fill="#E5D6CE"/>
<path d="M1080.5 434L1137.5 486.5L1495.5 1081L1360.5 1059C1261 888.667 1060.8 541.2 1056 514C1051.2 486.8 1070.33 449.333 1080.5 434Z" fill="#274756"/>
<rect x="1080" y="434.217" width="1364.43" height="1513.75" transform="rotate(-30 1080 434.217)" fill="#E5D6CE"/>
<rect x="2633" y="-46.7827" width="151.57" height="1352.04" transform="rotate(-30 2633 -46.7827)" fill="#274756"/>
<rect x="2742" y="-37.7827" width="1364.43" height="1707.18" transform="rotate(-30 2742 -37.7827)" fill="#E5D6CE"/>
<path d="M673.5 774.5H677L673.898 779.012L682.5 876.5L773.5 896.5C786.833 870.167 813.9 827.3 815.5 866.5C817.1 905.7 769.833 933.5 746 942.5C729.5 941.5 718.5 940.107 718 940.5C654.419 990.457 628.5 935.667 631.5 906C631.551 905.5 636.072 892.036 636 892C616.796 882.407 618.667 863 622 854.5L673.898 779.012L673.5 774.5Z" fill="#274756" stroke="#244657"/>
<path d="M833 828.5C833 874.063 793.153 911 744 911C694.847 911 655 874.063 655 828.5C655 782.937 694.847 746 744 746C793.153 746 833 782.937 833 828.5Z" fill="#DBD9D9"/>
<path d="M789.5 825C780 871.001 769 911 744 911C694.847 911 655 874.064 655 828.5C655 782.937 687.5 756.5 702.5 785.5C734.5 786.5 789.5 779.437 789.5 825Z" fill="#AFAFAF"/>
<path d="M691 766C683 765.2 678.667 767 677.5 768L679.5 771.5L707 782L712.5 778C712.667 775.5 711.9 774.2 711.5 773C711 771.5 701 767 691 766Z" fill="#DDDDDD"/>
<ellipse cx="752" cy="793.5" rx="48" ry="43.5" fill="#DDDDDD"/>
<path d="M679 767C684 767 702 778.5 705.5 779C708.283 779.397 707 773 713.472 769.066L715 804.5L729.5 822.5C742.833 824.833 767.346 814.136 778 815C796.5 816.5 787.327 831.657 786 834C777.5 849 777.5 875 733.5 864.5C689.5 854 692 828 692 821.5C692 815 693 802 692 800C691 798 681.5 795.5 674 784.5C666.5 773.5 674 767 679 767Z" fill="#C2C2C2"/>
<ellipse cx="749" cy="796" rx="35" ry="33" fill="#A29B9C"/>
<ellipse cx="749" cy="798" rx="35" ry="31" fill="#E5D6CE"/>
<path d="M698.206 786.986L699.853 783.206C699.278 782.603 696.369 781.001 689.334 779.418C682.299 777.835 692.318 783.804 698.206 786.986Z" fill="#AFAFAF"/>
</svg>
